# xmcd
#
# Track frame offsets:
#	150
#	14859
#	31997
#	48306
#	62610
#	81910
#	99572
#	114571
#	138981
#	162349
#	178315
#	193875
#	213712
#	230155
#	253054
#
# Disc length: 3687 seconds
#
# Revision: 2
# Processed by: cddbd v1.5.2PL0 Copyright (c) Steve Scherf et al.
# Submitted via: audiograbber 1.83.01
#
DISCID=e30e650f
DTITLE=Diverse - wavemusic moreoreless Jazz 5
DYEAR=2007
DGENRE=Jazz
TTITLE0=Mario Biondi and The High Five Quintet - On A Clear Day (You Can See Fore
TTITLE0=ver)
TTITLE1=Molly Johnson - If You Know Love
TTITLE2=Holly Cole - Larger Than Life
TTITLE3=Joey McIntyre - I've Got The World On A String
TTITLE4=Erin Boheme - One Night With Frank
TTITLE5=Coralie Clement - Samba De Mon Coeur Qui Bat
TTITLE6=Rosa Passos and Ron Carter - Garota De Ipanema
TTITLE7=Joel Xavier - Tejo
TTITLE8=Paolo Fedreghini and Marco Bianchi - Stay
TTITLE9=Toco Feat. Coralie Clement - Contradicao
TTITLE10=Malia - Mr. Candy
TTITLE11=Gladys Knight - The Man I Love
TTITLE12=Ulita Knaus - Four On The Floor
TTITLE13=Acoustic Affaire - Asszonysag
TTITLE14=Frank Chastenier - Mensch
EXTD=
EXTT0=
EXTT1=
EXTT2=
EXTT3=
EXTT4=
EXTT5=
EXTT6=
EXTT7=
EXTT8=
EXTT9=
EXTT10=
EXTT11=
EXTT12=
EXTT13=
EXTT14=
PLAYORDER=
